<svg fill="none" height="549" viewBox="0 0 357 549" width="357" xmlns="http://www.w3.org/2000/svg"><g fill="#0c0c0c"><path d="m68.15 124.52 5.18-6.08 8.72 7.43c.0645 1.25-.1578 2.499-.65 3.65-.4778 1.14-1.1288 2.199-1.93 3.14-.8613 1.049-1.9348 1.905-3.15 2.51-1.1819.568-2.4922.816-3.8.72-1.5428-.124-3.0471-.545-4.43-1.24-1.8394-.916-3.5507-2.069-5.09-3.43-1.6438-1.328-3.0709-2.903-4.23-4.67-.867-1.318-1.4682-2.792-1.77-4.34-.2339-1.302-.1411-2.642.27-3.9.4258-1.217 1.081-2.34 1.93-3.31.6972-.831 1.478-1.589 2.33-2.26.6654-.518 1.3748-.976 2.12-1.37l2.45 3.34c-.5431.285-1.0587.62-1.54 1-.6314.49-1.2051 1.05-1.71 1.67-.5368.613-.9237 1.342-1.13 2.13-.1942.793-.163 1.624.09 2.4.3185.984.8132 1.903 1.46 2.71.869 1.103 1.8547 2.109 2.94 3 2.38 2 4.44 3.17 6.19 3.4.7501.154 1.5277.105 2.2522-.143s1.3694-.686 1.8678-1.267c.3128-.368.5659-.783.75-1.23.1778-.438.2597-.908.24-1.38l-4.07-3.47-3.2 2.86z"/><path d="m104.19 79.64 3.81-2.17 8.26 14.61c1.65 2.92 2.24 5.37 1.79 7.35-.255 1.023-.73 1.979-1.391 2.801-.662.822-1.494 1.49-2.439 1.959-2.47 1.39-4.63 1.78-6.51 1.15s-3.54-2.25-5-4.87l-8.56-15.16 4-2.29 8.17 14.45c.608 1.3334 1.574 2.4722 2.79 3.29.473.209.993.293 1.508.242s1.009-.234 1.432-.532c.462-.21.858-.5433 1.144-.963.285-.4198.45-.91.476-1.417-.1-1.4284-.569-2.8065-1.36-4z"/><path d="m153.57 76.33-2.39-4.22h-.18l1.28 4.33 2 12.64-4.35.68-4.07-25.76 3.55-.56 9.37 11.69 2.27 4.17h.22l-1.27-4.25-2-12.74 4.35-.69 4.06 25.75-3.54.56z"/><path d="m202.55 62.53c.502.0215 1.003.0683 1.5.14l1.69.23 1.66.26 1.41.27c1.732.2951 3.379.9602 4.83 1.95 1.17.8329 2.098 1.9613 2.69 3.27.605 1.3839.912 2.8797.9 4.39-.015 3.5404-.725 7.0432-2.09 10.31-.595 1.4542-1.472 2.7762-2.58 3.89-1.099 1.0655-2.452 1.833-3.93 2.23-1.811.4383-3.699.4383-5.51 0l-1.26-.3-1.65-.43-1.65-.45c-.406-.1052-.807-.2321-1.2-.38zm5.88 5.2-1.18-.22c-.313-.0595-.631-.0929-.95-.1l-3.56 17.46c.116.061.241.1048.37.13l.57.16.57.15.38.1c.942.2321 1.933.1586 2.83-.21.825-.3789 1.538-.9645 2.07-1.7.621-.8369 1.116-1.76 1.47-2.74.39-1.1141.704-2.2534.94-3.41.224-1.0789.378-2.1712.46-3.27.085-.9678.018-1.9431-.2-2.89-.202-.8224-.615-1.5775-1.2-2.19-.704-.6806-1.602-1.1246-2.57-1.27z"/><path d="m254 110-11.75-7.15 13.46-22.1 4 2.42-11.28 18.43 7.77 4.73z"/><path d="m285.12 130.78-4-4.61-5.46 2.74-3-3.49 24.57-11.42 2.4 2.77-14.73 22.77-3.2-3.68zm-.5-6.33 2.81 3.24 3.59-5.07 2.68-3.11-.1-.11-3.51 2.21z"/><path d="m59.84 363-.58 8-11.43-.83c-.7961-.969-1.3574-2.108-1.64-3.33-.2866-1.201-.3878-2.439-.3-3.67.0914-1.364.4697-2.693 1.11-3.9.6141-1.157 1.521-2.133 2.63-2.83 1.3219-.804 2.7844-1.351 4.31-1.61 2.0168-.352 4.0712-.436 6.11-.25 2.1129.105 4.1971.533 6.18 1.27 1.4785.552 2.8367 1.384 4 2.45.9602.915 1.6812 2.052 2.1 3.31.3937 1.236.5432 2.537.44 3.83-.0711 1.083-.2555 2.155-.55 3.2-.2264.815-.5242 1.608-.89 2.37l-4-1.25c.2757-.539.5033-1.101.68-1.68.212-.771.3427-1.562.39-2.36.0706-.81-.0492-1.625-.35-2.38-.3145-.754-.8299-1.408-1.49-1.89-.8412-.599-1.7827-1.042-2.78-1.31-1.3585-.376-2.7529-.607-4.16-.69-3.12-.227-5.4533.08-7 .92-.7042.324-1.3076.832-1.7461 1.471-.4384.639-.6955 1.385-.7439 2.159-.0356.483.0049.969.12 1.44.1141.457.3256.883.62 1.25l5.34.38.88-4.2z"/><path d="m50.8101 407.44 26.53-1.79c-.0652-.677.1159-1.355.51-1.91.4035-.5.9411-.875 1.55-1.08.4093-.145.8367-.232 1.27-.26.4252-.017.8481.072 1.23.26.4349.228.814.549 1.11.94.3947.547.7049 1.151.92 1.79.4943 1.033.5834 2.214.25 3.31-.1931.412-.4711.778-.8158 1.074-.3447.297-.7483.517-1.1842.646-.5984.218-1.2446.27-1.87.15-.6885-.174-1.2895-.594-1.69-1.18l-21.44 15.61-1.66-4.59 5-3.51-2.08-5.74-6.07.59zm11.54 3.41 1.46 4 5.19-3.42 3.63-1.94v-.13l-4.08.8zm18-5.58c-.72.26-.93.81-.63 1.64.0961.371.319.696.63.92.1455.062.3019.093.46.093.158 0 .3144-.031.46-.093.1644-.047.3179-.126.4517-.232.1339-.107.2454-.238.3283-.388.1302-.362.1123-.761-.05-1.11-.0288-.178-.0994-.346-.206-.492-.1066-.145-.2461-.263-.4071-.344s-.339-.123-.5192-.122c-.1803.001-.3577.045-.5177.128z"/><path d="m96.24 439.67c.9061.609 1.7713 1.278 2.59 2 .88.77 1.6 1.45 2.18 2.06.725.753 1.371 1.577 1.93 2.46.521.83.861 1.76 1 2.73.134.985.024 1.988-.32 2.92-.459 1.149-1.177 2.176-2.1 3-1.234 1.283-2.7873 2.214-4.5 2.7-1.3996.365-2.884.213-4.18-.43l.16 1.89-3.85 10.3-3.71-3.87 4.24-10.32-1-1.77-7.68 7.43-3.22-3.36zm-5.24 11.51 1.1 1.14c.3129.378.7079.68 1.1549.883.4471.203.9345.301 1.4251.287 1.1603-.174 2.2223-.751 3-1.63.7216-.634 1.2283-1.476 1.45-2.41.0718-.442.0306-.894-.1198-1.316-.1504-.421-.405-.798-.7402-1.094-.27-.28-.54-.55-.82-.8-.2159-.21-.4578-.392-.72-.54z"/><path d="m131.19 467c.44.1.92.23 1.45.4l1.62.53c.55.18 1.08.36 1.59.56s1 .36 1.35.51c1.65.599 3.15 1.548 4.4 2.78 1.004 1.025 1.718 2.299 2.07 3.69.344 1.47.381 2.995.11 4.48-.656 3.475-1.973 6.792-3.88 9.77-.846 1.327-1.948 2.472-3.24 3.37-1.268.857-2.735 1.377-4.26 1.51-1.864.103-3.725-.24-5.43-1-.29-.11-.69-.29-1.18-.51s-1-.46-1.55-.72l-1.54-.73c-.49-.24-.86-.43-1.12-.59zm4.86 6.16c-.36-.14-.74-.29-1.12-.42-.295-.116-.6-.206-.91-.27l-6.6 16.53c.102.084.217.151.34.2l.53.25.54.26.35.16c.888.398 1.88.5 2.83.29.874-.228 1.676-.676 2.33-1.3.75-.716 1.387-1.542 1.89-2.45.591-1.022 1.103-2.089 1.53-3.19.402-1.02.736-2.066 1-3.13.254-.938.358-1.91.31-2.88-.046-.854-.322-1.68-.8-2.39-.55-.78-1.324-1.373-2.22-1.7z"/><path d="m185.1 496.7c.001-.737-.269-1.449-.76-2-.536-.579-1.145-1.086-1.81-1.51-.72-.467-1.5-.947-2.34-1.44-.844-.494-1.631-1.077-2.35-1.74-.736-.688-1.354-1.492-1.83-2.38-.535-1.061-.812-2.232-.81-3.42-.069-1.091.092-2.184.47-3.21.316-.84.831-1.592 1.5-2.19.673-.592 1.464-1.035 2.32-1.3.943-.295 1.922-.457 2.91-.48 1.179-.047 2.36.036 3.52.25.951.167 1.872.477 2.73.92l-1.31 4.14c-.588-.345-1.226-.598-1.89-.75-.878-.223-1.784-.318-2.69-.28-.786-.025-1.558.207-2.2.66-.252.214-.449.486-.574.792-.125.307-.175.638-.146.968.016.678.288 1.324.76 1.81.545.56 1.153 1.057 1.81 1.48.72.47 1.49 1 2.34 1.46.844.504 1.632 1.098 2.35 1.77.736.703 1.354 1.52 1.83 2.42.528 1.042.805 2.192.81 3.36.066 1.159-.09 2.32-.46 3.42-.32.92-.85 1.752-1.55 2.43-.716.67-1.564 1.185-2.49 1.51-1.042.37-2.135.576-3.24.61-1.341.06-2.684-.044-4-.31-.931-.182-1.833-.491-2.68-.92l1.38-4.22c.661.341 1.355.616 2.07.82.9.275 1.84.394 2.78.35 2.45-.09 3.62-1.09 3.55-3.02z"/><path d="m240.78 486.92c-.427.857-1.055 1.598-1.83 2.16-.847.665-1.766 1.232-2.74 1.69-1.145.564-2.387.903-3.66 1-1.278.062-2.55-.21-3.69-.79-1.39-.721-2.619-1.718-3.61-2.93-1.361-1.657-2.491-3.49-3.36-5.45-.98-1.97-1.654-4.077-2-6.25-.242-1.549-.164-3.132.23-4.65.34-1.234.991-2.359 1.89-3.27.844-.851 1.833-1.545 2.92-2.05.959-.463 1.965-.822 3-1.07.748-.179 1.512-.289 2.28-.33l.9 4.11c-.585-.015-1.17.046-1.74.18-.728.18-1.435.435-2.11.76-.729.314-1.358.823-1.818 1.47s-.734 1.408-.792 2.2c-.21 1.72.36 4 1.69 6.88.526 1.128 1.148 2.209 1.86 3.23.584.848 1.304 1.595 2.13 2.21.693.528 1.508.872 2.37 1 .886.097 1.782-.063 2.58-.46.689-.308 1.319-.734 1.86-1.26.439-.443.828-.932 1.16-1.46z"/><path d="m273.81 454.05-4.1 4.51 3.36 5.11-3.07 3.42-14.28-23.09 2.46-2.71 24.36 11.95-3.28 3.61zm-6.22 1.24 2.88-3.18-5.47-2.95-3.41-2.3-.1.11 2.62 3.22z"/><path d="m276.9 411.64 4.2-12.24 4.06 1.39-2.69 7.83 6.37 2.18 2.47-7.2 4.05 1.39-2.47 7.21 10 3.42-1.51 4.38z"/><path d="m278.3 364.77-.25-5.25 1.11-.05 3.47 4.65.17 3.47z"/><path d="m284.84 370.89-.8-12.91 4.28-.27.51 8.27 6.35-.4-.46-7.49 4.28-.26.46 7.49 6.64-.41-.52-8.42 4.28-.26.81 13.06z"/><path d="m178.26 548.69c-98.26 0-178.26-79.97-178.26-178.26v-192.17c0-98.26 80-178.26 178.26-178.26s178.27 80 178.27 178.26v192.17c0 98.29-79.97 178.26-178.27 178.26zm0-542.69c-94.96 0-172.26 77.3-172.26 172.26v192.17c0 95 77.26 172.22 172.22 172.22s172.23-77.26 172.23-172.22v-192.17c.04-94.96-77.22-172.26-172.19-172.26z"/><path d="m193.1 159.21-1.85-.61c-4.361-1.406-8.918-2.105-13.5-2.07h-2.95l-.11-2.94c-.03-.967-.007-1.935.07-2.9.1-1.31.27-2.66.44-4 .12-.92.24-1.86.34-2.82.053-.44.093-.89.12-1.35.44-6.28 5.19-11 9-14.7 1.78-1.74 3.61-3.54 4.11-4.73l1.47-3.48 3.07 2.19c9.15 6.55 8.2 13.86 7.36 20.31-.18 1.36-.37 2.76-.46 4.16-.05.635-.14 1.266-.27 1.89-.634 2.655-1.857 5.133-3.58 7.25-.56.72-1.2 1.47-2 2.29zm-12.26-8.65c1.969.11 3.929.341 5.87.69 1.51.27 3 .61 4.48 1l.38-.48c1.152-1.392 1.981-3.02 2.43-4.77.078-.329.128-.663.15-1 .11-1.58.31-3.07.49-4.52.68-5.19 1.16-8.89-2.48-12.6-.95 1.1-2.08 2.21-3.29 3.4-3.25 3.19-6.94 6.81-7.21 10.81 0 .52-.08 1-.14 1.54-.1 1-.23 2-.36 3s-.23 1.96-.32 2.93z"/><path d="m160.78 160.26-1.11-2.72c-.369-.904-.683-1.829-.94-2.77-.36-1.27-.66-2.6-.95-3.89-.2-.9-.4-1.82-.64-2.74-.11-.44-.22-.87-.35-1.31-1.74-6.05 1.13-12.06 3.44-16.89 1.07-2.24 2.18-4.56 2.24-5.85l.19-3.77 3.64 1c10.83 3 12.44 10.22 13.85 16.56.3 1.34.61 2.72 1 4.07.179.619.309 1.251.39 1.89.311 2.7.007 5.435-.89 8-.28.9-.62 1.82-1 2.83l-.75 1.8-2 .06c-4.577.141-9.099 1.043-13.38 2.67zm6.79-32.04c-.51 1.36-1.2 2.79-1.93 4.32-2 4.12-4.19 8.77-3.08 12.63.15.5.28 1 .4 1.49.25 1 .47 2 .68 2.9s.45 2 .7 3c3.356-1.031 6.818-1.678 10.32-1.93.07-.2.13-.39.19-.58.618-1.718.847-3.553.67-5.37-.048-.338-.122-.673-.22-1-.44-1.52-.77-3-1.08-4.42-1.1-5.16-1.92-8.8-6.61-11.04z"/><path d="m148.86 168.53-2-2.17c-.652-.726-1.263-1.487-1.83-2.28-.76-1.07-1.49-2.2-2.19-3.29-.5-.79-1-1.6-1.56-2.4-.26-.38-.52-.75-.79-1.12-3.7-5.09-3.06-11.72-2.54-17 .24-2.48.49-5 .11-6.27l-1.06-3.65 3.77-.29c11.19-.86 15.18 5.35 18.68 10.83.74 1.15 1.5 2.35 2.33 3.48.372.515.706 1.057 1 1.62 1.217 2.437 1.87 5.117 1.91 7.84v3l-.08 1.94-1.81.73c-4.249 1.703-8.189 4.095-11.66 7.08zm-4.54-32.44c0 1.45-.17 3-.34 4.72-.43 4.53-.93 9.67 1.43 12.91.31.43.6.86.89 1.28.57.84 1.12 1.7 1.66 2.54s1.1 1.72 1.65 2.51c2.797-2.101 5.815-3.892 9-5.34 0-.21 0-.42 0-.63-.006-1.822-.42-3.619-1.21-5.26-.165-.313-.352-.613-.56-.9-.93-1.28-1.74-2.55-2.53-3.78-2.81-4.41-4.82-7.55-9.99-8.05z"/><path d="m140.48 180.37-2.6-1.37c-.665-.343-1.313-.721-1.94-1.13l-.53-.37c-1.1-.74-2.17-1.56-3.2-2.35-.75-.57-1.5-1.15-2.28-1.71-.37-.27-.73-.53-1.11-.78-5.22-3.51-6.88-10-8.22-15.14-.62-2.41-1.26-4.9-2-5.93l-2.29-3 3.45-1.56c10.24-4.65 16.09-.17 21.26 3.78 1.08.84 2.21 1.7 3.37 2.48.529.355 1.03.75 1.5 1.18 1.985 1.867 3.517 4.162 4.48 6.71.36.88.7 1.81 1 2.85l.59 1.86-1.45 1.3c-3.419 3.047-6.305 6.643-8.54 10.64zm-2.24-8.25c1.911-2.94 4.145-5.657 6.66-8.1-.07-.2-.15-.39-.23-.58-.626-1.712-1.631-3.261-2.94-4.53-.258-.243-.535-.464-.83-.66-1.31-.88-2.51-1.8-3.67-2.69-4.16-3.18-7.12-5.45-12.15-4.15.48 1.38.88 2.91 1.3 4.56 1.14 4.41 2.43 9.4 5.75 11.64.43.29.85.59 1.27.89.82.59 1.62 1.2 2.41 1.81s1.65 1.26 2.43 1.81z"/><path d="m136.68 194.31-2.92-.33c-.966-.137-1.925-.327-2.87-.57-1.3-.33-2.61-.74-3.88-1.14-.87-.27-1.76-.55-2.67-.81-.43-.12-.86-.24-1.29-.34-6.12-1.52-9.89-7-12.92-11.43-1.41-2.05-2.86-4.17-3.95-4.87l-3.17-2 2.7-2.64c8-7.87 15.06-5.66 21.27-3.72 1.3.41 2.66.84 4 1.18.616.155 1.221.352 1.81.59 2.174.924 4.135 2.286 5.76 4l.71.78c.62.68 1.25 1.44 1.92 2.31l1.2 1.55-.93 1.73c-2.057 3.844-3.495 7.988-4.26 12.28l-.1.58zm-24.4-21.85c.92 1.13 1.82 2.43 2.78 3.83 2.58 3.76 5.5 8 9.39 9 .5.12 1 .26 1.5.4 1 .27 1.9.57 2.82.86s2 .63 3 .89c.791-3.418 1.958-6.739 3.48-9.9l-.17-.19-.26-.28c-1.174-1.394-2.647-2.505-4.31-3.25-.326-.132-.66-.243-1-.33-1.53-.38-3-.83-4.36-1.27-4.98-1.61-8.53-2.72-12.82.22z"/><path d="m122.53 210.51c-5.67 0-10.6-3.52-14.62-6.4-2-1.44-4.12-2.93-5.38-3.22l-3.68-.84 1.63-3.41c4.86-10.14 12.22-10.48 18.72-10.77 1.37-.06 2.78-.12 4.18-.27.631-.07 1.266-.09 1.9-.06 2.711.161 5.35.934 7.72 2.26.85.45 1.73 1 2.62 1.53l1.64 1-.27 1.93c-.659 4.528-.561 9.134.29 13.63l.54 2.88-2.86.63c-.947.208-1.905.359-2.87.45-1.31.14-2.65.2-4 .26-.95 0-1.91.08-2.88.15-.46 0-.9.07-1.33.12-.448.065-.898.109-1.35.13zm-15-14c1.25.74 2.54 1.66 3.93 2.65 3.71 2.64 7.9 5.65 11.89 5.22.51 0 1-.1 1.55-.13 1-.08 2-.13 3-.17s2-.09 3-.17c-.423-3.482-.457-7-.1-10.49l-.56-.3c-1.585-.905-3.351-1.448-5.17-1.59-.333-.023-.667-.023-1 0-1.58.17-3.09.23-4.55.3-5.28.31-9.01.48-12.03 4.72z"/><path d="m124.68 229.72c-3.572-.161-7.107-.8-10.51-1.9-2.39-.66-4.87-1.35-6.15-1.19l-3.75.47.36-3.76c1.1-11.2 7.91-14 13.91-16.52 1.27-.53 2.58-1.07 3.84-1.69.57-.277 1.158-.514 1.76-.71 2.616-.78 5.375-.958 8.07-.52.94.13 1.89.3 2.95.53l1.91.42.4 1.91c.955 4.486 2.644 8.784 5 12.72l1.51 2.53-2.49 1.57c-.826.515-1.68.983-2.56 1.4-1.2.59-2.48 1.12-3.72 1.63l-2.16.92-.74.62-.47-.07-.4.19c-2.111 1-4.425 1.496-6.76 1.45zm-13.49-8.87c1.43.27 3 .69 4.6 1.15 4.23 1.17 9 2.5 12.57 1l1.79-.8.2-.09.62-.28 1.86-.78c1-.41 2-.81 2.87-1.23-1.593-3.126-2.834-6.42-3.7-9.82l-.61-.09c-1.798-.313-3.644-.217-5.4.28-.343.104-.677.235-1 .39-1.43.7-2.82 1.28-4.17 1.84-4.82 1.99-8.24 3.42-9.63 8.43z"/><path d="m118.61 250.67-.94-3.67c-2.8-10.89 2.63-15.87 7.42-20.27 1-.93 2-1.89 3-2.9l.25-.25v-.12l1.17-.9 1-.8h.1c1.929-1.18 4.052-2.009 6.27-2.45.93-.2 1.91-.37 3-.51l1.93-.26 1 1.66c2.415 3.892 5.456 7.359 9 10.26l2.27 1.87-1.8 2.32c-.43.55-.9 1.1-1.43 1.68l-.22.23-.25.26-.27.27c-.85.85-1.75 1.68-2.62 2.49-.69.63-1.39 1.27-2.08 1.94-.33.32-.64.64-1 1-4.37 4.53-11 5-16.35 5.47-2.48.19-5 .39-6.18 1zm14.14-22.92c-.102.088-.198.182-.29.28-1.1 1.14-2.21 2.16-3.29 3.15-3.85 3.54-6.6 6.06-6.18 11.25 1.43-.24 3-.36 4.7-.5 4.54-.35 9.69-.76 12.47-3.64.37-.38.73-.75 1.11-1.1.71-.7 1.45-1.38 2.18-2.05s1.49-1.37 2.16-2v-.07c-2.551-2.39-4.831-5.052-6.8-7.94l-.61.12c-1.77.321-3.449 1.024-4.92 2.06z"/><path d="m140.15 267.9-2.15-3.11c-6.35-9.28-3-15.83 0-21.6.63-1.21 1.28-2.47 1.85-3.75.262-.58.562-1.141.9-1.68 1.278-1.987 2.953-3.69 4.92-5l.09-.29 1-.45c.74-.46 1.53-.91 2.42-1.37l1.73-.9 1.53 1.2c3.608 2.838 7.664 5.055 12 6.56l2.77 1-.89 2.8c-.3.922-.651 1.827-1.05 2.71-.55 1.22-1.18 2.43-1.79 3.61-.42.82-.86 1.65-1.27 2.51-.2.4-.39.81-.57 1.22-2.56 5.76-8.62 8.52-13.49 10.73-2.26 1-4.6 2.1-5.48 3zm9.85-30.7-.12.08c-1.594.913-2.962 2.174-4 3.69-.19.297-.357.608-.5.93-.64 1.44-1.33 2.78-2 4.08-2.41 4.64-4.13 8-2 12.69 1.27-.72 2.71-1.37 4.26-2.08 4.14-1.88 8.84-4 10.47-7.68.21-.48.43-.94.65-1.41.44-.9.9-1.79 1.35-2.66s1-1.85 1.38-2.73c-3.208-1.366-6.256-3.079-9.09-5.11z"/><path d="m166.29 276.74-3.08-2.2c-9.14-6.55-8.19-13.86-7.35-20.31.18-1.36.36-2.76.46-4.16.04-.633.13-1.261.27-1.88.628-2.657 1.852-5.136 3.58-7.25.56-.73 1.2-1.48 1.94-2.3l1.32-1.44 1.85.61c1.832.596 3.703 1.068 5.6 1.41 2.607.469 5.252.69 7.9.66h2.93l.12 2.93c.04.977.017 1.956-.07 2.93-.09 1.31-.27 2.66-.44 4-.11.91-.24 1.84-.33 2.79-.05.44-.09.9-.12 1.35-.44 6.3-5.19 11-9 14.71-1.77 1.74-3.6 3.54-4.11 4.73zm-.95-32.6-.38.49c-1.173 1.401-2.013 3.049-2.46 4.82-.077.329-.127.663-.15 1-.11 1.59-.31 3.09-.5 4.53-.68 5.2-1.16 8.89 2.49 12.6.95-1.1 2.08-2.21 3.29-3.4 3.25-3.19 6.93-6.81 7.21-10.81 0-.51.08-1 .14-1.55.1-1 .23-2 .35-3s.27-2.06.36-3c-1.973-.106-3.937-.336-5.88-.69-1.5-.24-3-.58-4.47-.99z"/><path d="m193.87 276.1-3.64-1c-10.83-3-12.44-10.21-13.85-16.56-.3-1.34-.61-2.72-1-4.07-.175-.627-.309-1.265-.4-1.91-.307-2.7-.002-5.434.89-8 .28-.89.63-1.83 1-2.85l.75-1.8 2-.06c4.577-.135 9.099-1.034 13.38-2.66l2.76-1 1.11 2.72c.367.904.681 1.829.94 2.77.36 1.27.66 2.6.94 3.88.2.9.41 1.82.65 2.75.1.44.22.87.34 1.31 1.74 6-1.13 12.06-3.43 16.89-1.07 2.24-2.18 4.56-2.24 5.85zm-12-30.3c-.07.2-.14.39-.2.59-.61 1.71-.836 3.533-.66 5.34.047.358.121.712.22 1.06.44 1.51.77 3 1.09 4.42 1.13 5.1 1.95 8.74 6.64 11 .51-1.36 1.19-2.79 1.93-4.32 2-4.11 4.18-8.77 3.08-12.62-.15-.51-.28-1-.41-1.51-.24-1-.46-1.94-.68-2.9s-.45-2-.7-3c-3.368 1.027-6.839 1.678-10.35 1.94z"/><path d="m213.75 266.43c-9.66 0-13.35-5.77-16.63-10.9-.74-1.16-1.5-2.35-2.33-3.49-.37-.517-.704-1.058-1-1.62-1.222-2.435-1.875-5.116-1.91-7.84 0-1 0-1.94 0-3l.08-1.95 1.81-.72c4.248-1.709 8.188-4.104 11.66-7.09l2.22-1.91 2 2.16c.654.724 1.265 1.485 1.83 2.28.77 1.07 1.5 2.2 2.2 3.3.5.79 1 1.59 1.56 2.39.26.39.51.75.78 1.12 3.7 5.09 3.06 11.71 2.55 17-.24 2.47-.49 5-.11 6.27l1.12 3.61-3.77.29c-.72.08-1.4.1-2.06.1zm-15.86-24.73v.64c.006 1.818.42 3.612 1.21 5.25.165.313.352.614.56.9.93 1.28 1.74 2.55 2.53 3.79 2.82 4.41 4.83 7.55 10 8 0-1.45.17-3 .33-4.72.44-4.53.94-9.67-1.42-12.91-.31-.43-.61-.85-.9-1.28-.57-.84-1.11-1.69-1.65-2.53s-1.1-1.73-1.65-2.52c-2.798 2.117-5.819 3.921-9.01 5.38z"/><path d="m228.63 251.39c-5.52 0-9.45-3-13-5.77-1.09-.83-2.21-1.7-3.37-2.48-.531-.353-1.032-.747-1.5-1.18-1.988-1.864-3.521-4.16-4.48-6.71-.36-.86-.69-1.79-1-2.85l-.59-1.86 1.46-1.3c3.416-3.046 6.302-6.638 8.54-10.63l1.43-2.56 2.6 1.35c.666.349 1.314.733 1.94 1.15h.07l.54.39c1.08.74 2.14 1.55 3.17 2.33.74.57 1.49 1.14 2.27 1.71.37.26.72.52 1.09.76 5.23 3.52 6.9 10 8.24 15.15.62 2.41 1.26 4.9 2 5.93l2.29 3-3.45 1.57c-2.572 1.257-5.388 1.94-8.25 2zm-17-19c.08.2.16.39.23.58.636 1.71 1.64 3.26 2.94 4.54.262.235.539.452.83.65 1.32.89 2.51 1.8 3.67 2.69 4.16 3.18 7.13 5.45 12.16 4.15-.48-1.37-.88-2.91-1.3-4.55-1.14-4.41-2.43-9.41-5.76-11.65-.43-.29-.85-.59-1.27-.89-.81-.59-1.61-1.2-2.39-1.8s-1.65-1.25-2.44-1.82c-1.932 2.932-4.186 5.639-6.72 8.07z"/><path d="m238.65 231.84c-3.109-.146-6.178-.767-9.1-1.84-1.31-.41-2.66-.84-4-1.17-.609-.156-1.207-.353-1.79-.59-2.185-.92-4.156-2.282-5.79-4l-.7-.78c-.62-.68-1.25-1.43-1.93-2.31l-1.19-1.55.92-1.72c2.058-3.843 3.496-7.988 4.26-12.28l.59-3.55 2.91.39c.967.136 1.925.326 2.87.57 1.29.33 2.61.74 3.88 1.14.87.27 1.76.55 2.67.81l1.29.35c6.12 1.52 9.89 7 12.92 11.42 1.41 2.05 2.86 4.17 3.95 4.87l3.17 2-2.7 2.65c-4.4 4.28-8.44 5.59-12.23 5.59zm-17.22-12.73.25.28c1.176 1.391 2.649 2.502 4.31 3.25.325.13.66.237 1 .32 1.53.38 3 .84 4.36 1.27 5 1.57 8.56 2.69 12.84-.26-.92-1.12-1.82-2.43-2.78-3.83-2.58-3.75-5.5-8-9.39-9-.5-.12-1-.26-1.5-.4-1-.27-1.9-.57-2.82-.85s-2-.64-3-.9c-.791 3.418-1.958 6.739-3.48 9.9z"/><path d="m231.74 210.89h-.49c-2.724-.165-5.376-.941-7.76-2.27-.85-.45-1.7-1-2.61-1.53l-1.65-1.09.28-1.93c.659-4.528.561-9.134-.29-13.63l-.55-2.89 2.87-.63c.951-.202 1.912-.349 2.88-.44 1.32-.14 2.68-.2 4-.26.84 0 1.68-.07 2.54-.13h.27c.453 0 .903-.04 1.35-.12 6.27-.65 11.69 3.21 16 6.32 2 1.44 4.12 2.94 5.37 3.22l3.69.84-1.63 3.41c-4.86 10.15-12.22 10.48-18.72 10.77-1.37.06-2.79.12-4.18.27-.455.054-.912.084-1.37.09zm-6-7.94.56.31c1.583.908 3.35 1.448 5.17 1.58.333.023.667.023 1 0 1.58-.16 3.09-.23 4.55-.3 5.23-.23 9-.4 12-4.64-1.26-.74-2.55-1.66-3.93-2.64-3.71-2.65-7.9-5.65-11.89-5.23l-.94.09-.35.18-.62-.1-2.62.13c-1.06.05-2.08.09-3.05.18.426 3.482.466 7 .12 10.49z"/><path d="m227.41 192.73c-1.034-.002-2.066-.076-3.09-.22-.94-.13-1.91-.3-2.95-.53l-1.91-.42-.4-1.91c-.952-4.487-2.642-8.785-5-12.72l-1.49-2.52 2.48-1.57c.817-.522 1.665-.993 2.54-1.41 1.21-.58 2.47-1.1 3.69-1.61.85-.36 1.72-.71 2.59-1.1.4-.18.81-.37 1.23-.58 5.66-2.76 12.07-1 17.23.45 2.39.67 4.86 1.35 6.15 1.19l3.75-.47-.37 3.76c-1.09 11.2-7.9 14-13.9 16.52-1.27.53-2.58 1.07-3.84 1.69-.491.246-.999.456-1.52.63l-.69.35h-.29c-1.377.339-2.792.497-4.21.47zm-2.9-6.3.62.09c1.795.313 3.637.217 5.39-.28h.12c.294-.097.581-.214.86-.35 1.43-.7 2.82-1.28 4.17-1.84 4.83-2 8.27-3.44 9.66-8.45-1.43-.27-3-.69-4.59-1.15-4.39-1.21-9.36-2.6-13-.84l-1.4.66c-.93.41-1.85.79-2.75 1.17s-1.93.8-2.82 1.21c1.607 3.111 2.862 6.391 3.74 9.78z"/><path d="m214.68 177.87-1-1.66c-2.417-3.89-5.458-7.356-9-10.26l-2.27-1.86 1.79-2.32c.594-.763 1.232-1.491 1.91-2.18l.24-.24c.86-.87 1.77-1.71 2.66-2.52.68-.64 1.38-1.28 2.08-2 .33-.32.64-.63 1-.95 4.37-4.54 11-5.06 16.35-5.47 2.48-.2 5-.4 6.18-1l3.37-1.72.94 3.66c2.8 10.89-2.63 15.87-7.42 20.27-1 .93-2.05 1.89-3 2.9-.448.457-.926.885-1.43 1.28-2.189 1.627-4.72 2.735-7.4 3.24-.91.2-1.89.37-3 .52zm-3.82-14.51c2.562 2.407 4.849 5.09 6.82 8l.61-.13c1.804-.318 3.513-1.039 5-2.11.283-.21.548-.444.79-.7 1.1-1.15 2.22-2.17 3.29-3.16 3.86-3.54 6.6-6.06 6.19-11.24-1.43.23-3 .36-4.7.49-4.54.36-9.69.76-12.48 3.64-.36.38-.73.75-1.1 1.11-.71.69-1.46 1.37-2.18 2s-1.55 1.42-2.24 2.1z"/><path d="m205.54 166.63-1.53-1.2c-3.608-2.838-7.664-5.055-12-6.56l-2.77-1 .89-2.8c.294-.927.645-1.836 1.05-2.72.54-1.21 1.17-2.42 1.78-3.58.42-.83.86-1.66 1.28-2.53l.57-1.22c2.56-5.76 8.62-8.52 13.48-10.74 2.27-1 4.61-2.09 5.48-3l2.57-2.77 2.14 3.12c6.36 9.27 3 15.82 0 21.59-.63 1.22-1.29 2.47-1.86 3.75-.257.574-.554 1.129-.89 1.66-1.485 2.264-3.465 4.162-5.79 5.55-.848.544-1.722 1.044-2.62 1.5zm-8.54-12.32c3.23 1.368 6.296 3.096 9.14 5.15l.4-.24.13-.08c1.593-.919 2.96-2.183 4-3.7.187-.297.351-.608.49-.93.65-1.44 1.34-2.78 2-4.08 2.42-4.64 4.14-8 2-12.68-1.27.71-2.71 1.37-4.26 2.07-4.15 1.89-8.84 4-10.47 7.69-.207.467-.427.937-.66 1.41-.44.91-.9 1.8-1.35 2.67s-1.03 1.84-1.42 2.72z"/><path d="m178.26 526.33c-86.26 0-156.51-70.21-156.51-156.51v-190.95c0-86.3 70.25-156.51 156.51-156.51s156.52 70.21 156.52 156.51v27.67c0 .796-.316 1.559-.879 2.121-.562.563-1.325.879-2.121.879s-1.559-.316-2.121-.879c-.563-.562-.879-1.325-.879-2.121v-27.67c0-83-67.5-150.47-150.47-150.47s-150.51 67.5-150.51 150.47v191c0 83 67.5 150.47 150.46 150.47s150.47-67.5 150.47-150.47v-16.66c.001-6.104-1.201-12.147-3.538-17.786-2.338-5.638-5.764-10.76-10.083-15.073-4.319-4.312-9.446-7.731-15.088-10.06-5.642-2.328-11.687-3.522-17.791-3.511h-18.26c-7.466.024-14.618 3.008-19.886 8.299s-8.222 12.455-8.214 19.921c.148 4.098-.531 8.184-1.996 12.014-1.466 3.83-3.689 7.326-6.536 10.277-2.847 2.952-6.259 5.3-10.034 6.904-3.774 1.603-7.833 2.43-11.934 2.43s-8.16-.827-11.934-2.43c-3.775-1.604-7.187-3.952-10.034-6.904-2.847-2.951-5.07-6.447-6.536-10.277-1.465-3.83-2.144-7.916-1.996-12.014v-75.28c0-.796.316-1.559.879-2.121.562-.563 1.325-.879 2.121-.879s1.559.316 2.121.879c.563.562.879 1.325.879 2.121v75.28c0 6.498 2.581 12.729 7.176 17.324s10.826 7.176 17.324 7.176 12.729-2.581 17.324-7.176 7.176-10.826 7.176-17.324c0-9.062 3.592-17.754 9.99-24.173 6.397-6.418 15.078-10.038 24.14-10.067h18.25.08c13.918.003 27.265 5.533 37.106 15.374s15.371 23.188 15.374 37.106v16.61c-.03 86.27-70.25 156.48-156.55 156.48z"/><path d="m229.09 416.5-2.32-.69c-5.292-1.585-10.16-4.339-14.243-8.059-4.084-3.72-7.279-8.311-9.349-13.432-2.07-5.122-2.962-10.643-2.611-16.156.352-5.513 1.939-10.876 4.643-15.693l1.18-2.11 2.32.69c5.293 1.583 10.162 4.337 14.247 8.056 4.084 3.72 7.28 8.311 9.351 13.433 2.07 5.122 2.962 10.644 2.609 16.158-.353 5.513-1.941 10.877-4.647 15.693zm-19.75-48.85c-1.75 3.815-2.703 7.947-2.799 12.143-.097 4.196.665 8.368 2.238 12.259 1.573 3.892 3.924 7.421 6.909 10.371 2.986 2.951 6.542 5.26 10.452 6.787 1.763-3.811 2.723-7.943 2.821-12.141.098-4.197-.668-8.37-2.251-12.259-1.565-3.898-3.915-7.432-6.903-10.384s-6.551-5.258-10.467-6.776z"/><path d="m177.81 398.18h-.68l-2.41-.06-.48-2.37c-.827-4.121-.729-8.375.286-12.454 1.016-4.079 2.924-7.882 5.587-11.135 2.664-3.252 6.015-5.873 9.814-7.673 3.798-1.801 7.949-2.736 12.153-2.738h.68l2.41.06.48 2.37c.827 4.121.729 8.375-.286 12.454-1.016 4.079-2.924 7.882-5.587 11.135-2.664 3.252-6.015 5.873-9.814 7.673-3.799 1.801-7.949 2.736-12.153 2.738zm22.27-30.29c-5.886.531-11.322 3.371-15.12 7.898s-5.65 10.374-5.15 16.262c5.885-.531 11.321-3.371 15.12-7.898 3.798-4.527 5.65-10.374 5.15-16.262z"/><path d="m277.14 305.65-.84-2.27c-1.931-5.175-2.674-10.718-2.174-16.219s2.232-10.819 5.065-15.561c2.834-4.741 6.697-8.785 11.305-11.832 4.608-3.046 9.841-5.018 15.314-5.768l2.4-.33.84 2.26c1.933 5.176 2.678 10.72 2.178 16.222-.499 5.502-2.23 10.822-5.064 15.565-2.834 4.742-6.698 8.787-11.307 11.834-4.608 3.047-9.843 5.019-15.317 5.769zm27-45.23c-4.099.904-7.97 2.637-11.375 5.091s-6.272 5.578-8.426 9.181-3.549 7.607-4.099 11.769c-.55 4.161-.244 8.391.9 12.429 4.099-.904 7.97-2.636 11.375-5.091 3.405-2.454 6.272-5.578 8.426-9.181s3.549-7.607 4.099-11.769c.55-4.161.244-8.39-.9-12.429z"/><path d="m282.26 305.12c-.52 0-1.06 0-1.63 0s-1.28-.05-1.95-.12c-5.101-.473-10.047-2.006-14.523-4.499-4.475-2.493-8.382-5.892-11.469-9.98-3.088-4.088-5.289-8.775-6.463-13.762-1.174-4.986-1.295-10.163-.355-15.199l.44-2.38 2.42-.09c5.522-.219 11.021.81 16.09 3.013 5.068 2.202 9.573 5.521 13.18 9.707 1.416 1.639 2.682 3.403 3.78 5.27l-5.22 3.05c-.912-1.552-1.963-3.018-3.14-4.38-2.734-3.184-6.094-5.772-9.869-7.604-3.776-1.832-7.888-2.869-12.081-3.046-.425 4.056-.041 8.155 1.13 12.061s3.105 7.541 5.691 10.694c2.585 3.154 5.771 5.762 9.372 7.675 3.602 1.913 7.547 3.093 11.607 3.47.53.05 1 .08 1.55.09h2.38l.1 2.36 3.12.54-.54 3-2.42.11z"/></g></svg>