<svg width="74" height="90" viewBox="0 0 74 90" fill="none" xmlns="http://www.w3.org/2000/svg">
<path d="M46.3622 29.4305L45.7048 29.0973C43.7634 28.1155 41.7044 27.3954 39.608 26.9649L38.5367 26.7366L38.5798 25.8044C38.5992 25.435 38.6428 25.0703 38.7104 24.7122C38.798 24.2143 38.9254 23.7104 39.0456 23.2243C39.1335 22.8761 39.2247 22.5238 39.3029 22.1591C39.3379 21.9904 39.3734 21.8169 39.4036 21.6399C39.8099 19.3127 42.0779 17.9954 43.8991 16.9281C44.8245 16.3867 45.6801 15.8715 45.9876 15.4253L46.6122 14.4577L47.6838 15.3886C51.4493 18.7016 50.7972 21.2612 50.1807 23.7392C50.0524 24.2525 49.9196 24.7842 49.8254 25.3241C49.7846 25.5589 49.7242 25.788 49.6449 26.0098C49.2759 26.9483 48.6543 27.7648 47.8265 28.3981C47.5504 28.6241 47.2406 28.8501 46.8818 29.0899L46.3622 29.4305ZM40.881 25.3221C41.8467 25.5647 42.8034 25.8622 43.7447 26.2125C44.463 26.4809 45.1713 26.7793 45.8669 27.1066C45.9783 27.0242 46.0842 26.9405 46.1704 26.8575C46.7734 26.4038 47.2298 25.8182 47.5061 25.1436C47.5538 25.0072 47.5911 24.8668 47.6175 24.7232C47.7226 24.1252 47.8605 23.5681 47.9969 23.0275C48.5257 20.9267 48.8846 19.4559 47.075 17.4747C46.5088 17.8871 45.9117 18.2675 45.2865 18.6142C43.6947 19.5663 41.8701 20.6401 41.58 22.2486C41.5481 22.4446 41.5081 22.6364 41.4681 22.8282C41.3824 23.2131 41.2893 23.5867 41.2005 23.9443C41.0808 24.4257 40.9664 24.8793 40.881 25.3221Z" fill="white"/>
<path d="M32.7014 27.4139L32.3702 26.4722C32.2389 26.0937 32.1326 25.7122 32.0518 25.3299C31.9331 24.8086 31.8475 24.2652 31.7629 23.7414C31.704 23.3683 31.6428 22.9899 31.5684 22.6013C31.5344 22.4175 31.4973 22.2377 31.4578 22.0527C30.9023 19.6185 32.3909 17.5933 33.5857 15.9725C34.1912 15.1505 34.7645 14.3725 34.8449 13.8331L35.0228 12.661L36.3386 13.2609C40.9834 15.4219 41.4221 18.1773 41.8498 20.8359C41.9374 21.3894 42.0289 21.9606 42.1575 22.5276C42.2144 22.7776 42.2499 23.0278 42.2638 23.2763C42.3043 24.3197 42.0759 25.3189 41.5955 26.1998C41.4367 26.5169 41.255 26.8387 41.0288 27.1825L40.7005 27.6885L39.9877 27.5559C37.8769 27.1634 35.7642 27.0763 33.7359 27.298L32.7014 27.4139ZM36.6419 15.5228C36.3051 16.1118 35.9265 16.6774 35.5081 17.217C34.4481 18.6584 33.252 20.2934 33.6326 21.9886C33.6787 22.1944 33.7191 22.3991 33.7571 22.6007C33.8355 23.0071 33.9005 23.4057 33.9609 23.7936C34.0434 24.3097 34.1229 24.7961 34.2289 25.2712C35.9085 25.1701 37.6303 25.255 39.3559 25.5241C39.42 25.4095 39.48 25.3086 39.5362 25.1875C39.8948 24.5493 40.0693 23.8229 40.0467 23.0627C40.0382 22.9111 40.0164 22.7584 39.9814 22.6059C39.8384 21.9802 39.7442 21.3769 39.6508 20.7956C39.2914 18.529 39.039 16.9435 36.6419 15.5228Z" fill="white"/>
<path d="M27.4321 30.1923L26.7757 29.3617C26.5129 29.026 26.2701 28.6801 26.0486 28.3257C25.7457 27.8472 25.462 27.3414 25.1879 26.8545C24.9883 26.4991 24.7816 26.1301 24.5667 25.7594C24.4624 25.5855 24.3604 25.4169 24.2502 25.2466C22.816 23.0153 23.3315 20.5446 23.7405 18.5687C23.9489 17.5684 24.1466 16.6236 24.0075 16.0643L23.7076 14.8474L25.0862 15.0496C29.9998 15.7664 31.4567 18.3612 32.868 20.874C33.1614 21.3963 33.4616 21.9344 33.7967 22.4584C33.9406 22.6836 34.068 22.9151 34.1779 23.151C34.6226 24.1775 34.8122 25.2424 34.7325 26.2661C34.7161 26.6309 34.6789 27.0081 34.6276 27.4185L34.5363 28.0225L33.8488 28.1168C31.8548 28.3742 29.9775 28.9315 28.2923 29.7665L27.4321 30.1923ZM26.2393 17.2065C26.1719 17.8904 26.0611 18.5644 25.9075 19.2253C25.5413 20.9768 25.1285 22.9639 26.1264 24.5245C26.2486 24.7166 26.3708 24.9087 26.4793 25.0979C26.7071 25.4811 26.9211 25.8612 27.1278 26.2302C27.3995 26.7142 27.6571 27.1687 27.9275 27.6042C29.3612 26.9956 30.9021 26.556 32.5171 26.2949C32.5295 26.158 32.5416 26.0257 32.5534 25.8958C32.614 25.1577 32.4825 24.3895 32.1685 23.6474C32.0995 23.5003 32.0193 23.3561 31.9284 23.2159C31.5591 22.6389 31.242 22.0707 30.9341 21.5237C29.727 19.3769 28.8903 17.8867 26.2393 17.2065Z" fill="white"/>
<path d="M23.3589 34.7052L22.4713 34.1029C22.1998 33.9041 21.9238 33.6948 21.6396 33.4554L21.6074 33.4487L21.4309 33.2862C20.9868 32.9115 20.5535 32.5082 20.1352 32.1199C19.8277 31.8353 19.5103 31.5391 19.1866 31.2535C19.0323 31.117 18.8778 30.9829 18.7229 30.8534C16.6264 29.091 16.1234 26.5317 15.7177 24.4718C15.5135 23.4261 15.3204 22.4397 14.985 21.9477L14.2645 20.849L15.5289 20.6215C20.0405 19.8088 22.2982 21.906 24.4803 23.9328C24.9314 24.3517 25.4001 24.7861 25.8901 25.1965C26.0967 25.3698 26.2918 25.5539 26.474 25.7473C27.2544 26.6142 27.829 27.5983 28.1546 28.6254C28.2784 28.9809 28.3944 29.3631 28.5011 29.7885L28.6583 30.4117L28.1062 30.6975C26.4801 31.5599 25.0715 32.6834 23.9382 34.022L23.3589 34.7052ZM22.6238 31.8723L22.6506 31.8779L22.7919 32.0069C23.7916 30.9725 24.9503 30.0719 26.2423 29.3251C26.2002 29.1858 26.1547 29.0531 26.1088 28.9249C25.8812 28.1798 25.4731 27.464 24.9149 26.8312C24.8016 26.7051 24.6792 26.5852 24.5485 26.4727C24.0052 26.018 23.514 25.5599 23.0323 25.1181C21.1908 23.4017 19.892 22.2087 17.3462 22.3637C17.5505 23.0551 17.7135 23.7501 17.8345 24.4456C18.1934 26.2657 18.6034 28.3384 20.0571 29.5685C20.2349 29.717 20.4046 29.8638 20.5632 30.0131C20.9067 30.3218 21.2368 30.6277 21.5573 30.9198C21.9316 31.2515 22.2794 31.5729 22.6238 31.8723Z" fill="white"/>
<path d="M20.865 40.4323L19.8613 40.1088C19.4572 39.9774 19.0586 39.8261 18.6674 39.6555C18.1208 39.4213 17.5693 39.1509 17.0357 38.8911C16.6645 38.7109 16.2881 38.5274 15.9004 38.3509C15.7169 38.2671 15.5335 38.1833 15.3443 38.1031C12.8361 37.036 11.4111 34.6725 10.2679 32.7746C9.68809 31.8122 9.14122 30.9034 8.65383 30.5142L7.60467 29.6645L8.61805 29.0451C12.2399 26.8334 15.0138 28.1817 17.6946 29.4878C18.2514 29.7593 18.8263 30.0391 19.4119 30.2881C19.6628 30.3947 19.9073 30.5167 20.1432 30.6534C21.0467 31.1899 21.8419 31.8746 22.4778 32.6634L22.491 32.666L22.7165 32.9462C22.9586 33.251 23.1981 33.5858 23.4627 33.9726L23.8397 34.5182L23.4618 34.9995C22.43 36.2935 21.6594 37.757 21.1783 39.3364L21.1092 39.574L20.865 40.4323ZM10.8724 30.1882C11.3159 30.8029 11.7246 31.4341 12.0968 32.0789C13.1134 33.7635 14.2637 35.6723 16.0181 36.4166C16.228 36.5057 16.4375 36.5994 16.6443 36.6926C17.0499 36.8797 17.4443 37.0716 17.831 37.2596C18.3593 37.5184 18.8623 37.7602 19.3491 37.9707C19.8197 36.6367 20.4813 35.3841 21.319 34.2408C21.2588 34.1606 21.2037 34.0837 21.1456 34.0109L21.0488 33.8881C20.5615 33.2294 19.9303 32.6556 19.2014 32.2085C19.0539 32.124 18.9016 32.0479 18.7456 31.9808C18.1031 31.7062 17.4971 31.4131 16.9121 31.1266C14.6279 30.0175 13.0375 29.2426 10.8724 30.1882Z" fill="white"/>
<path d="M13.9604 46.0573C11.6009 45.5993 9.62869 43.8873 8.02112 42.4923C7.14061 41.7259 6.30957 41.0044 5.72977 40.7723L4.47232 40.268L5.12791 39.3357C7.47053 36.0095 10.4322 36.4695 13.2894 36.9046C13.8813 36.9961 14.4969 37.0898 15.1073 37.152C15.3706 37.178 15.6341 37.2205 15.896 37.2794C17.023 37.5605 18.1006 38.0589 19.0493 38.7377C19.3942 38.9734 19.74 39.2304 20.1068 39.522L20.6483 39.9529L20.5035 40.5226C20.0685 42.2028 19.9598 43.9765 20.1817 45.7718L20.2978 46.6874L19.2876 46.6882C18.8832 46.6875 18.4757 46.6648 18.0674 46.6201C17.5072 46.563 16.9311 46.4746 16.3735 46.3874C15.9658 46.3247 15.5449 46.2594 15.1257 46.2061C14.9265 46.1675 14.7327 46.158 14.5397 46.1393C14.3466 46.1209 14.1532 46.0936 13.9604 46.0573ZM7.57101 39.7514C8.19951 40.2164 8.80329 40.7093 9.37951 41.2276C10.9225 42.5679 12.6687 44.086 14.4895 44.2683C14.7115 44.2903 14.9331 44.3169 15.1519 44.3453C15.5947 44.4032 16.0315 44.4692 16.455 44.535C17.0047 44.6206 17.5203 44.6996 18.0169 44.7515C17.9197 43.2901 18.0199 41.8488 18.3155 40.4588L17.941 40.1939C17.2582 39.6978 16.481 39.3306 15.6663 39.1194C15.505 39.0821 15.3425 39.0553 15.1801 39.0391C14.5036 38.9711 13.8618 38.8723 13.2304 38.7755C10.8055 38.3962 9.10618 38.1343 7.56052 39.7493L7.57101 39.7514Z" fill="white"/>
<path d="M13.5891 53.9944C12.0434 53.6928 10.5199 53.0088 9.18891 52.4138C8.1099 51.929 7.08987 51.4721 6.48357 51.4172L5.15916 51.3041L5.38681 50.1763C6.1957 46.1655 9.01334 45.7 11.7388 45.2517C12.3045 45.1581 12.8891 45.0611 13.4578 44.9329C13.7017 44.8782 13.952 44.8392 14.2069 44.8165C15.3215 44.7442 16.4764 44.9046 17.5846 45.2855C17.9743 45.4084 18.3624 45.5498 18.8141 45.727L19.4672 45.9834L19.5561 46.5939C19.8214 48.3936 20.4122 50.1842 21.3047 51.8937L21.7632 52.7686L20.8711 53.0892C20.5083 53.2121 20.1351 53.3154 19.7532 53.3987C19.2096 53.5153 18.6677 53.6113 18.1262 53.7026C17.78 53.7569 17.4307 53.8154 17.0781 53.8826L16.7744 54.0015L16.6736 53.9631L16.4317 54.0144C15.5269 54.2071 14.5538 54.2003 13.5891 53.9944ZM7.72336 49.8444C8.46268 50.1073 9.19067 50.4059 9.90385 50.7387C11.7957 51.5766 13.9375 52.5478 15.6327 52.1658L15.7144 52.1465L16.2567 52.046L16.3515 52.0293L16.5686 51.9873C16.8639 51.9347 17.1562 51.8862 17.4458 51.8396C17.987 51.7506 18.4932 51.6664 18.9693 51.56C18.3185 50.1427 17.8534 48.6836 17.5843 47.215C17.4367 47.1628 17.2939 47.1162 17.1564 47.0706C16.3553 46.7912 15.5197 46.669 14.711 46.7131C14.5524 46.7255 14.3969 46.7492 14.246 46.7841C13.6176 46.9241 13.0031 47.027 12.4073 47.1288C10.0965 47.5033 8.47802 47.769 7.72336 49.8444Z" fill="white"/>
<path d="M9.59923 61.6135L9.36618 60.422C8.53724 56.1724 10.8979 54.8578 13.1819 53.5841C13.6568 53.3203 14.1461 53.0476 14.6081 52.7459C14.6996 52.6891 14.7912 52.6323 14.893 52.5824L14.895 52.5592L15.2422 52.3943L15.6366 52.2155L15.6685 52.222C16.5409 51.9386 17.4889 51.8088 18.4663 51.8387C18.866 51.8449 19.2754 51.8649 19.7583 51.9094L20.4427 51.9691L20.7591 52.5526C21.6984 54.2703 22.9269 55.8806 24.3957 57.3194L25.1425 58.0522L24.4499 58.6371C24.2572 58.7981 24.0457 58.9577 23.8042 59.1206L23.6753 59.2028L23.5661 59.2748L23.4689 59.3351C23.0651 59.5898 22.6384 59.8281 22.2231 60.0593C21.9025 60.2296 21.569 60.4232 21.249 60.6172C21.0923 60.7078 20.9433 60.8024 20.7943 60.8969C18.8121 62.1828 15.9552 61.7946 13.6592 61.4857C12.4966 61.3283 11.4008 61.1798 10.8346 61.3141L9.59923 61.6135ZM16.3888 54.1452C16.2619 54.2042 16.1404 54.2708 16.025 54.3444C15.5143 54.6763 14.9994 54.9649 14.4989 55.2424C12.5647 56.3211 11.2081 57.0768 11.3353 59.3764C12.1049 59.4167 12.8781 59.496 13.6511 59.6138C15.6851 59.888 17.9944 60.1997 19.3739 59.3071C19.5431 59.1978 19.7121 59.0909 19.8832 58.9914C20.223 58.7873 20.5671 58.5958 20.9 58.4091C21.2329 58.2225 21.5883 58.0262 21.9028 57.8334L21.9684 57.611L22.0695 57.5987C20.9666 56.404 20.007 55.1178 19.2105 53.7667C19.0562 53.7588 18.9078 53.7544 18.7654 53.7536C18.0669 53.7302 17.3873 53.8139 16.7558 54.0008L16.3888 54.1452Z" fill="white"/>
<path d="M17.3667 70.0734L16.6915 68.9454C14.2723 64.9177 15.8861 62.8699 17.4496 60.8902C17.7621 60.4789 18.1059 60.0552 18.4076 59.6107C18.5355 59.4214 18.6804 59.2431 18.8412 59.077C19.4571 58.464 20.2298 57.9913 21.1118 57.688L21.1471 57.5714L21.6319 57.5091C21.9748 57.4025 22.3332 57.3064 22.7297 57.2159L23.3711 57.0673L23.8779 57.5561C25.3961 58.9999 27.1362 60.2453 29.0272 61.2414L29.9992 61.7639L29.6021 62.5653C29.4415 62.8857 29.2583 63.1944 29.0534 63.4898C28.7734 63.9079 28.457 64.3016 28.1521 64.6906C27.9315 64.9686 27.7074 65.2553 27.4912 65.5461C27.3906 65.6847 27.2897 65.8257 27.1787 65.9574C25.9058 67.86 23.1661 68.3411 20.9718 68.7298C19.8524 68.9254 18.8109 69.1136 18.351 69.4197L17.3667 70.0734ZM22.6145 59.3533L22.5662 59.3694C21.7967 59.5835 21.1201 59.9585 20.5863 60.4666C20.4868 60.5716 20.3959 60.6831 20.3139 60.8004C19.9943 61.2913 19.6321 61.735 19.293 62.1669C17.9685 63.8463 17.041 65.0321 18.0571 67.2986C18.7696 67.1067 19.4998 66.9517 20.2445 66.8345C22.2031 66.4939 24.3951 66.1 25.2908 64.7786C25.3991 64.6154 25.5095 64.4597 25.6089 64.3041C25.838 63.9922 26.0749 63.6867 26.2981 63.4093C26.608 63.0261 26.8888 62.6607 27.1365 62.2954C25.6313 61.4148 24.2243 60.3894 22.9467 59.2421C22.8333 59.2778 22.717 59.3153 22.6145 59.3533Z" fill="white"/>
<path d="M27.6503 75.6424L26.5925 74.7146C22.8136 71.3988 23.4575 68.8351 24.0823 66.3591C24.2105 65.8457 24.3433 65.3141 24.4375 64.7742C24.4786 64.5435 24.5385 64.3183 24.617 64.1004C24.9848 63.1613 25.6065 62.3447 26.4352 61.7121C26.7053 61.4897 27.0153 61.2613 27.38 61.0181L27.9002 60.6703L28.5576 61.0035C30.5014 61.9866 32.5631 62.7073 34.6621 63.1375L35.7305 63.3652L35.6907 64.2933C35.6721 64.6676 35.628 65.037 35.5588 65.3996C35.4689 65.8921 35.3445 66.3942 35.2215 66.8797C35.1366 67.2261 35.0493 67.5671 34.9704 67.9389C34.9324 68.1094 34.8969 68.2829 34.8667 68.4599C34.4605 70.787 32.1952 72.1072 30.3714 73.1739C29.4488 73.7159 28.5907 74.2281 28.2693 74.6737L27.6503 75.6424ZM28.3927 62.9935C28.2785 63.0754 28.1727 63.159 28.0892 63.2426C27.4752 63.6921 27.0083 64.2765 26.7232 64.9524C26.6754 65.0879 26.6392 65.2277 26.6148 65.371C26.5096 65.9689 26.369 66.5255 26.2324 67.0684C25.7039 69.1667 25.3448 70.6398 27.1542 72.6209C27.7211 72.2084 28.3182 71.8273 28.9428 71.4791C30.5592 70.5323 32.3922 69.4579 32.6738 67.85C32.692 67.6512 32.7461 67.4575 32.7889 67.2663C32.8716 66.8833 32.9642 66.5144 33.053 66.1568C33.1727 65.6754 33.2871 65.2219 33.3672 64.7755C31.6636 64.3479 29.991 63.7483 28.3847 62.9894L28.3927 62.9935Z" fill="white"/>
<path d="M39.2382 77.4438L37.9339 76.8416C33.277 74.6876 32.8386 71.9298 32.4223 69.2687C32.3348 68.7153 32.2434 68.1417 32.1121 67.574C32.0566 67.3241 32.0211 67.0739 32.0058 66.8254C31.9645 65.7818 32.1929 64.7824 32.6741 63.9018C32.8267 63.5907 33.0142 63.2677 33.2412 62.9143L33.5698 62.406L34.2853 62.5391C36.3951 62.9334 38.5072 63.0212 40.5344 62.7988L41.5716 62.6835L41.9026 63.6276C42.0343 64.0061 42.1407 64.3876 42.2211 64.77C42.3397 65.2913 42.4253 65.8347 42.5099 66.3585C42.5688 66.7316 42.6301 67.1101 42.7045 67.4986C42.7384 67.6825 42.7753 67.8646 42.815 68.0473C43.3705 70.4815 41.8822 72.5044 40.6871 74.1275C40.0816 74.9495 39.5082 75.7275 39.4278 76.267L39.2382 77.4438ZM34.9108 64.5793C34.8435 64.6973 34.7822 64.8125 34.7268 64.9249C34.3714 65.5601 34.1973 66.2821 34.2174 67.0378C34.2254 67.1927 34.2479 67.3488 34.2846 67.5046C34.4248 68.1298 34.522 68.7313 34.6152 69.315C34.9729 71.5692 35.2256 73.1524 37.6222 74.5779C37.9586 73.9886 38.3372 73.4229 38.7561 72.8836C39.8161 71.4421 41.0125 69.8047 40.6316 68.1119C40.5856 67.9061 40.5424 67.7009 40.5074 67.4974C40.4288 67.0935 40.3639 66.6925 40.3034 66.3069C40.2211 65.7884 40.1413 65.3044 40.0381 64.8299C38.3587 64.9328 36.6366 64.8487 34.9108 64.5793Z" fill="white"/>
<path d="M48.2741 74.8818C44.0917 73.9909 42.7308 71.5683 41.4135 69.2199C41.12 68.7001 40.817 68.1613 40.4822 67.635C40.3388 67.4095 40.2115 67.1781 40.101 66.9424C39.6562 65.916 39.4666 64.851 39.5464 63.8273C39.5628 63.4625 39.5997 63.0877 39.6513 62.675L39.7367 62.0745L40.4132 61.9779C42.4052 61.7204 44.2812 61.1645 45.9664 60.3323L46.843 59.91L47.4966 60.7401C47.7588 61.0753 48.0017 61.4203 48.224 61.7736C48.5266 62.2545 48.8103 62.7603 49.0842 63.2495C49.284 63.6026 49.4907 63.9716 49.7067 64.3305C49.8108 64.5067 49.9155 64.6759 50.023 64.8456C51.4544 67.0762 50.9446 69.5458 50.5329 71.521C50.3243 72.5237 50.1265 73.4685 50.2656 74.0277L50.5683 75.2452L49.1897 75.0431C48.8589 74.9943 48.5481 74.9401 48.2741 74.8818ZM41.7518 63.8157C41.7393 63.9526 41.7273 64.0849 41.7155 64.2147C41.6548 64.9528 41.7863 65.721 42.1003 66.4632C42.1694 66.6103 42.2496 66.7545 42.3404 66.8946C42.7098 67.4716 43.0296 68.0404 43.3372 68.5898C44.5404 70.7188 45.3688 72.2072 48.0197 72.8874C48.0873 72.2027 48.1982 71.528 48.3518 70.8663C48.718 69.1148 49.1305 67.1301 48.1327 65.5695C48.0105 65.3774 47.8883 65.1853 47.7798 64.9961C47.552 64.613 47.338 64.2328 47.1313 63.8638C46.8594 63.3822 46.605 62.9236 46.3316 62.4899C44.9022 63.1043 43.3645 63.5495 41.7518 63.8157Z" fill="white"/>
<path d="M55.1569 69.5033C52.8478 69.0222 51.3007 67.5829 49.7887 66.1793C49.3377 65.7604 48.8689 65.326 48.3789 64.9156C48.1694 64.7389 47.9719 64.5511 47.7877 64.3537C47.008 63.4856 46.4335 62.5009 46.1073 61.4732C45.9832 61.12 45.8673 60.7378 45.7606 60.3124L45.6027 59.6961L46.1554 59.4033C47.7818 58.5404 49.1912 57.4172 50.3264 56.0794L50.903 55.3956L51.7872 56.0067C52.0767 56.2067 52.3566 56.4185 52.6256 56.6414L52.8311 56.8147C53.2752 57.1894 53.7086 57.5928 54.1296 57.9817C54.4344 58.2657 54.752 58.5596 55.0731 58.8446C55.2274 58.9811 55.3794 59.1124 55.5343 59.2419C57.6367 61.0009 58.1499 63.5695 58.542 65.6291C58.7461 66.6748 58.9392 67.6612 59.2736 68.1649L59.9942 69.2637L58.7297 69.4911C57.5943 69.7263 56.3758 69.7304 55.1569 69.5033ZM48.0221 60.7764C48.0643 60.9157 48.1097 61.0485 48.1556 61.1766C48.3842 61.9215 48.7923 62.6372 49.3496 63.2704C49.4639 63.3941 49.5876 63.511 49.7195 63.6202C50.2575 64.0738 50.7516 64.5301 51.2359 64.9749C53.0828 66.6925 54.3808 67.8949 56.9261 67.747C56.7222 67.0554 56.5592 66.3604 56.4378 65.665C56.0797 63.8354 55.6751 61.7638 54.2151 60.5418C54.0398 60.3962 53.8649 60.2459 53.6956 60.0944C53.3547 59.7862 53.0272 59.4809 52.709 59.194C52.3488 58.8581 52.0061 58.54 51.6615 58.2429L51.632 58.2368L51.4808 58.0962C50.4773 59.128 49.3152 60.0255 48.0201 60.7689L48.0221 60.7764Z" fill="white"/>
<path d="M60.3997 62.0905C59.0554 61.821 57.8077 61.2135 56.5751 60.6185C56.021 60.3475 55.4461 60.0677 54.8605 59.8187C54.612 59.7117 54.3693 59.5908 54.1342 59.4568C53.2135 58.9116 52.4051 58.2127 51.7628 57.4065L51.7496 57.4039L51.5536 57.1554C51.3117 56.8483 51.0722 56.5136 50.8076 56.1268L50.4316 55.5695L50.7998 55.1075C51.8316 53.8094 52.6017 52.3418 53.0817 50.7585C53.1011 50.6896 53.1232 50.6212 53.1425 50.5545L53.3974 49.6655L54.4011 49.989C54.8052 50.1203 55.2038 50.2717 55.595 50.4423C56.1416 50.6764 56.6933 50.9445 57.2243 51.2038C57.5955 51.384 57.9745 51.5681 58.362 51.7469C58.5455 51.8307 58.729 51.9145 58.9183 51.9924C61.429 53.0623 62.8514 55.4253 63.9972 57.3238C64.577 58.2862 65.1239 59.195 65.6113 59.5842L66.6657 60.4349L65.6524 61.0544C63.6936 62.2528 61.9817 62.4078 60.3997 62.0905ZM53.1302 56.0872L53.2369 56.219C53.7219 56.8784 54.3525 57.4524 55.0818 57.8981C55.229 57.983 55.3813 58.0591 55.5375 58.1259C56.18 58.4004 56.786 58.6935 57.371 58.9801C59.6422 60.0842 61.238 60.8602 63.4004 59.9141C62.9554 59.3001 62.5466 58.6688 62.176 58.0233C61.1594 56.3387 60.0091 54.4299 58.2547 53.6856C58.0448 53.5965 57.8353 53.5028 57.6287 53.4073C57.2229 53.2225 56.8258 53.03 56.4393 52.8397C55.9108 52.5833 55.4079 52.3414 54.9237 52.1315C54.453 53.4655 53.7915 54.7181 52.9537 55.8614L53.1302 56.0872Z" fill="white"/>
<path d="M58.5667 52.8588L58.3596 52.8186C57.2327 52.5376 56.1551 52.0393 55.2066 51.3606C54.8616 51.1249 54.5159 50.868 54.1491 50.5764L53.5974 50.1412L53.7421 49.5716C54.177 47.8905 54.2858 46.1161 54.0641 44.3201L53.9482 43.4022L54.9607 43.4041C55.366 43.4055 55.7742 43.4291 56.1833 43.4748C56.7486 43.533 57.3325 43.6228 57.9007 43.7096C58.2532 43.764 58.6135 43.8198 58.9771 43.8693L59.1186 43.8967C59.3126 43.9344 59.5116 43.9448 59.7098 43.9646C62.3274 44.2381 64.4912 46.1065 66.2301 47.616C67.1105 48.3822 67.9441 49.1042 68.5212 49.3357L69.7812 49.8404L69.1231 50.7722C66.7835 54.0968 63.814 53.6379 60.9548 53.1979C60.3604 53.106 59.7448 53.0124 59.1345 52.9502C58.945 52.9287 58.7555 52.8982 58.5667 52.8588ZM55.9476 49.6479C56.0729 49.7402 56.1987 49.8279 56.3194 49.9122C57.0022 50.4083 57.7793 50.7753 58.5939 50.9865C58.7552 51.0237 58.9177 51.0506 59.08 51.0667C59.7564 51.1347 60.3983 51.2334 61.0296 51.3302C63.4573 51.7051 65.1591 51.9673 66.7098 50.3531C66.0812 49.8876 65.4775 49.394 64.9017 48.8748C63.3612 47.5375 61.6151 46.0196 59.7919 45.837C59.6765 45.8146 59.562 45.8135 59.4461 45.798L59.3214 45.8535L59.0056 45.7453C58.6104 45.6921 58.216 45.6296 57.853 45.5733C57.2953 45.4885 56.7692 45.4075 56.2726 45.3557C56.3602 46.8177 56.251 48.2588 55.9476 49.6479Z" fill="white"/>
<path d="M57.9675 45.139C57.5286 45.0531 57.0925 44.9407 56.6623 44.8024C56.2727 44.6795 55.8715 44.5356 55.4329 44.3609L54.7798 44.1046L54.6909 43.494C54.426 41.6946 53.8362 39.9043 52.9449 38.1948L52.4863 37.3222L53.3882 37.0105C53.7499 36.8879 54.1222 36.7852 54.5033 36.7029C55.0348 36.5721 55.5886 36.4926 56.1299 36.4036C56.5088 36.3415 56.8957 36.2787 57.2837 36.2043C57.4657 36.1671 57.6502 36.1304 57.8283 36.0761C60.2767 35.5291 62.9178 36.7149 65.0501 37.6724C66.1319 38.1555 67.1491 38.6141 67.7554 38.6691L69.08 38.7798L68.8523 39.9076C68.0435 43.9184 65.2259 44.384 62.5005 44.8323C61.9348 44.9259 61.3501 45.0229 60.7814 45.1511C60.5966 45.1939 60.4076 45.2267 60.2153 45.2493L59.9742 45.3547L59.772 45.2848C59.1775 45.3081 58.5706 45.2591 57.9675 45.139ZM56.6827 42.8885C56.8303 42.9408 56.973 42.9874 57.1132 43.0335C57.9124 43.3126 58.7461 43.4351 59.5531 43.3922L59.5925 43.3999C59.7383 43.3846 59.8819 43.3618 60.0226 43.3314C60.6512 43.1891 61.2655 43.0885 61.8586 42.9862C64.1674 42.6043 65.7852 42.3455 66.5405 40.2632C65.8012 40.0002 65.0732 39.7016 64.36 39.3689C62.4682 38.531 60.3264 37.5598 58.6313 37.9419C58.4245 37.9883 58.2207 38.0306 58.0172 38.0706C57.6048 38.1496 57.2042 38.2168 56.8037 38.2817C56.2626 38.3684 55.7697 38.4528 55.2965 38.5574C55.946 39.9702 56.4115 41.4245 56.6827 42.8885Z" fill="white"/>
<path d="M53.8081 38.1196L53.4918 37.5361C52.5533 35.8182 51.3248 34.2078 49.8554 32.7697L49.1086 32.037L49.8011 31.4521C50.0803 31.2215 50.3764 31.0072 50.6879 30.8102L50.7539 30.7671C51.1663 30.5071 51.6097 30.2628 52.0281 30.0252C52.3487 29.8549 52.6822 29.6613 53.0049 29.4678C53.1589 29.3766 53.3069 29.2937 53.4568 29.1875C55.4415 27.9021 58.2956 28.2896 60.5914 28.5984C61.7539 28.7557 62.8524 28.9024 63.4185 28.7704L64.6631 28.4871L64.8961 29.6785C65.7224 33.9272 63.3619 35.2419 61.0781 36.5157C60.6059 36.78 60.114 37.0521 59.652 37.3539C59.4521 37.4829 59.2396 37.5971 59.0161 37.6957C58.0404 38.1042 56.9383 38.2934 55.7925 38.2491C55.3899 38.2447 54.9674 38.222 54.4978 38.1803L53.8081 38.1196ZM52.1154 32.4108C53.2497 33.6312 54.2341 34.948 55.0473 36.3328C55.1999 36.3404 55.3483 36.3448 55.4924 36.3459C56.3229 36.384 57.1236 36.2543 57.8353 35.9663C57.9737 35.9057 58.1055 35.8357 58.2297 35.7568C58.7405 35.4225 59.2579 35.1368 59.7557 34.8588C61.6897 33.78 63.0462 33.0243 62.9216 30.7254C62.152 30.6848 61.379 30.6056 60.606 30.488C58.5695 30.2134 56.2631 29.9025 54.881 30.7945C54.7145 30.9043 54.5428 31.0107 54.3718 31.1102C54.0347 31.3149 53.6906 31.5064 53.3579 31.6907C52.9227 31.9343 52.5046 32.1673 52.1233 32.4124L52.1154 32.4108Z" fill="white"/>
<path d="M50.889 33.0308L50.3819 32.5444C48.8627 31.1004 47.1217 29.8548 45.2299 28.8585L44.2622 28.3488L44.6594 27.5474C44.819 27.2273 45.0022 26.9193 45.2078 26.6252C45.4878 26.2071 45.8042 25.8133 46.1121 25.4226C46.3297 25.1464 46.5534 24.8643 46.7699 24.5712C46.8705 24.4326 46.9713 24.2916 47.0688 24.1571C48.3418 22.2544 51.0843 21.7739 53.2759 21.3847C54.3952 21.189 55.4395 21.0014 55.8968 20.6947L56.8931 20.0293L57.5639 21.1444C59.9832 25.1722 58.3667 27.2195 56.8058 29.1998C56.4934 29.611 56.1468 30.0342 55.8451 30.4787C55.7167 30.6668 55.5719 30.8444 55.4117 31.01C54.7003 31.7131 53.7918 32.2373 52.7534 32.5439L52.7137 32.557C52.3477 32.6754 51.9469 32.7841 51.5223 32.8805L50.889 33.0308ZM47.1152 27.8033C48.6213 28.6841 50.0293 29.7097 51.3078 30.8572L51.6929 30.7404L51.7064 30.7433C52.473 30.5266 53.1468 30.1503 53.6784 29.642C53.7789 29.5377 53.8699 29.4262 53.9509 29.3082C54.2707 28.815 54.6329 28.3712 54.9747 27.9399C56.2963 26.2623 57.2254 25.0888 56.2076 22.81C55.4957 23.0029 54.7654 23.1579 54.0203 23.2741C52.0614 23.617 49.8695 24.0086 48.9766 25.3305C48.8685 25.4914 48.7549 25.6511 48.6418 25.8062C48.4129 26.1158 48.1796 26.4126 47.9528 26.6987C47.6651 27.0794 47.3575 27.4368 47.1152 27.8033Z" fill="white"/>
</svg>
